<svg width="11" height="11" viewBox="0 0 11 11" fill="none" xmlns="http://www.w3.org/2000/svg">
<path d="M10.1194 8.05668V9.92032C10.1194 10.197 9.9055 10.4266 9.62954 10.4461C9.39902 10.4624 9.21097 10.4705 9.06535 10.4705C4.40817 10.4705 0.632812 6.69514 0.632812 2.03795C0.632812 1.89234 0.640955 1.70427 0.657241 1.47376C0.676751 1.1978 0.906311 0.983887 1.18296 0.983887H3.04668C3.18196 0.983887 3.29526 1.08635 3.30884 1.22095C3.32104 1.34178 3.33237 1.43879 3.34286 1.51198C3.44946 2.25653 3.66722 2.9652 3.97879 3.62065C4.0288 3.72586 3.99619 3.85179 3.9014 3.9195L2.7639 4.73204C3.45641 6.34967 4.75364 7.64691 6.37126 8.33943L7.18231 7.20389C7.25088 7.10797 7.37832 7.07497 7.48478 7.12552C8.1402 7.43683 8.84879 7.65434 9.59323 7.7607C9.66596 7.77113 9.76235 7.78236 9.88236 7.79448C10.017 7.80808 10.1194 7.92139 10.1194 8.05668Z" fill="white"/>
</svg>
