<svg width="16" height="16" viewBox="0 0 16 16" fill="none" xmlns="http://www.w3.org/2000/svg">
<g clip-path="url(#clip0_0_64)">
<path fill-rule="evenodd" clip-rule="evenodd" d="M12.7393 2.88751C11.4392 1.58584 9.71009 0.868683 7.86803 0.86792C4.0723 0.86792 0.983118 3.95701 0.981591 7.75377C0.981082 8.96747 1.29814 10.1522 1.9008 11.1966L0.923828 14.765L4.57444 13.8074C5.58033 14.3561 6.71277 14.6452 7.86523 14.6456H7.86812C11.6634 14.6456 14.7529 11.5562 14.7544 7.75928C14.7552 5.91918 14.0395 4.18908 12.7393 2.88751ZM7.86803 13.4826H7.86566C6.83864 13.4821 5.8314 13.2061 4.95248 12.6847L4.74357 12.5607L2.57724 13.129L3.15547 11.0168L3.01933 10.8003C2.44636 9.88896 2.14381 8.83566 2.14432 7.75419C2.1455 4.59843 4.7132 2.03098 7.87032 2.03098C9.39913 2.03149 10.8363 2.62761 11.9169 3.70951C12.9975 4.7914 13.5923 6.22945 13.5917 7.75886C13.5904 10.9149 11.0229 13.4826 7.86803 13.4826ZM11.0076 9.19581C10.8356 9.10963 9.98957 8.6935 9.83181 8.63599C9.67421 8.57857 9.55936 8.54998 9.44477 8.72217C9.33 8.89435 9.00031 9.28199 8.89988 9.39675C8.79945 9.5116 8.69919 9.52602 8.52709 9.43984C8.35499 9.35374 7.8006 9.17197 7.14332 8.58577C6.63185 8.12952 6.28655 7.56606 6.18612 7.39387C6.08586 7.22152 6.18527 7.13737 6.26161 7.04271C6.44788 6.81141 6.6344 6.5689 6.69174 6.45414C6.74916 6.33929 6.7204 6.23878 6.67732 6.15269C6.6344 6.06659 6.29028 5.21966 6.14693 4.87503C6.00715 4.53965 5.86541 4.58494 5.75972 4.57968C5.65946 4.57468 5.5447 4.57366 5.42994 4.57366C5.31526 4.57366 5.12883 4.61667 4.97106 4.78902C4.81338 4.96129 4.36891 5.37751 4.36891 6.22445C4.36891 7.07138 4.98548 7.88956 5.07149 8.00441C5.15749 8.11926 6.28485 9.85724 8.01087 10.6025C8.4214 10.7799 8.74186 10.8857 8.99182 10.965C9.40405 11.096 9.77905 11.0775 10.0756 11.0332C10.4062 10.9837 11.0935 10.6169 11.237 10.215C11.3804 9.81305 11.3804 9.46859 11.3373 9.39675C11.2944 9.32499 11.1796 9.28199 11.0076 9.19581Z" fill="white"/>
</g>
<defs>
<clipPath id="clip0_0_64">
<rect width="14.8235" height="14.8235" fill="white" transform="translate(0.412109 0.411865)"/>
</clipPath>
</defs>
</svg>
